Coordinates
version=1
nRows=12
nColumns=24
inDegrees=yes

Units are S.I. units (second, meters, Newtons, ...)
Angles are in degrees.

endheader
time	pelvis_tilt	pelvis_list	pelvis_rotation	pelvis_tx	pelvis_ty	pelvis_tz	hip_flexion_r	hip_adduction_r	hip_rotation_r	knee_angle_r	ankle_angle_r	subtalar_angle_r	mtp_angle_r	hip_flexion_l	hip_adduction_l	hip_rotation_l	knee_angle_l	ankle_angle_l	subtalar_angle_l	mtp_angle_l	lumbar_extension	lumbar_bending	lumbar_rotation
      0.69983333	      5.19605277	     -2.55226793	      3.01336064	     -0.40022381	      1.02054414	      0.28111193	      0.32846573	      6.50966257	      0.80015762	    -19.12415520	     11.52966236	     -7.34766262	     -2.51365519	      6.12178426	     -4.40036113	      0.36720232	    -65.65012361	     -9.68827756	      0.75940549	      3.34386159	    -19.36097609	     10.56408014	     -2.23362600
      0.70400000	      5.21769398	     -2.37812139	      2.94411711	     -0.39538233	      1.02146334	      0.28130318	     -0.17535503	      6.35198816	      0.89760598	    -18.75268211	     11.39510705	     -7.43105254	     -2.51718273	      6.51303849	     -4.21765141	      0.33675226	    -65.48162774	     -8.85637134	      0.33090861	      3.29062012	    -19.43988062	     10.26867041	     -1.95050105
      0.70816667	      5.20739270	     -2.20610048	      2.89391217	     -0.39057573	      1.02230613	      0.28144643	     -0.62409726	      6.18718827	      0.93785945	    -18.41897410	     11.27502314	     -7.47886243	     -2.51955566	      6.94515305	     -4.02927032	      0.32664711	    -65.28088953	     -7.99142167	     -0.08504864	      3.27540188	    -19.47989591	      9.99155270	     -1.79955509
      0.71233333	      5.24572609	     -2.03220528	      2.81574724	     -0.38571241	      1.02326971	      0.28164224	     -1.16530192	      6.02998765	      1.06673644	    -18.00211283	     11.10317811	     -7.62631053	     -2.51858861	      7.28834700	     -3.84591685	      0.28427720	    -64.97998533	     -7.15232446	     -0.46948986	      3.21928660	    -19.57353557	      9.68423301	     -1.40055489
      0.71650000	      5.25178901	     -1.84536625	      2.72568893	     -0.38087109	      1.02417901	      0.28182432	     -1.64815090	      5.84746499	      1.16685089	    -17.63300672	     10.94089492	     -7.69932069	     -2.51154742	      7.65854187	     -3.64539478	      0.22389157	    -64.63008090	     -6.30039319	     -0.86390598	      3.15033890	    -19.63103391	      9.37184922	     -1.12513942
      0.72066667	      5.21479156	     -1.67600872	      2.63754623	     -0.37604304	      1.02500981	      0.28196688	     -2.06223410	      5.67117787	      1.22320100	    -17.30495725	     10.77982291	     -7.69277939	     -2.51022119	      8.07349388	     -3.46028112	      0.16232925	    -64.24169646	     -5.42019935	     -1.24832961	      3.13068632	    -19.62516951	      9.12723785	     -1.01333350
      0.72483333	      5.28011039	     -1.51729354	      2.52931327	     -0.37119247	      1.02600200	      0.28218379	     -2.63559267	      5.52304374	      1.39278478	    -16.86745068	     10.54498291	     -7.84079867	     -2.48939585	      8.35077486	     -3.30651767	      0.06493852	    -63.77060259	     -4.58746327	     -1.59146528	      2.98777636	    -19.77218153	      8.80373468	     -0.55368741
      0.72900000	      5.29227177	     -1.32009087	      2.44720154	     -0.36634420	      1.02690492	      0.28230653	     -3.11738308	      5.31542220	      1.44594145	    -16.50873040	     10.36787109	     -7.89260077	     -2.47350295	      8.67682360	     -3.08679280	      0.00972068	    -63.24192608	     -3.76254604	     -1.92787506	      2.89127293	    -19.82150794	      8.48283788	     -0.33758482
      0.73316667	      5.32981110	     -1.16135830	      2.32444910	     -0.36151108	      1.02783897	      0.28247570	     -3.63218272	      5.14897174	      1.58405521	    -16.12511268	     10.12901719	     -7.95026867	     -2.43573290	      8.96000140	     -2.92301150	     -0.09785659	    -62.66254939	     -2.94325902	     -2.27134054	      2.69075916	    -19.93105769	      8.21571436	     -0.01369855
      0.73733333	      5.31426689	     -0.99941429	      2.22794418	     -0.35667407	      1.02867753	      0.28260549	     -4.08655749	      4.97868400	      1.70481017	    -15.74676446	      9.87750983	     -8.07514891	     -2.24523187	      9.29791776	     -2.74281418	     -0.16405346	    -62.04362147	     -2.10517003	     -2.53136930	      1.81165328	    -19.96769101	      7.92269165	      0.34880007
      0.74150000	      5.35714176	     -0.80277414	      2.13085800	     -0.35180936	      1.02960167	      0.28266974	     -4.58664546	      4.75336853	      1.72520218	    -15.41292843	      9.69121495	     -8.00966065	     -2.22863931	      9.54200687	     -2.51982729	     -0.24308292	    -61.33211507	     -1.37963166	     -2.88255627	      1.73543160	    -20.03286540	      7.64688162	      0.41370692
      0.74566667	      5.39403899	     -0.62322221	      2.02871628	     -0.34696591	      1.03050339	      0.28275286	     -5.09505540	      4.55069179	      1.81012601	    -15.03763215	      9.47617193	     -8.01029425	     -2.19913515	      9.78399578	     -2.31191311	     -0.31027117	    -60.57446845	     -0.68385983	     -3.20684100	      1.59852259	    -20.13451693	      7.34112435	      0.67642062
